<svg xmlns="http://www.w3.org/2000/svg" viewBox="0 0 700 520" width="700" height="520">
  <defs>
    <linearGradient id="bro_sky" x1="0%" y1="0%" x2="0%" y2="100%"><stop offset="0%" stop-color="#3A88C8"/><stop offset="100%" stop-color="#A8D8F0"/></linearGradient>
    <linearGradient id="bro_glass" x1="0%" y1="0%" x2="100%" y2="100%"><stop offset="0%" stop-color="#D0E8F8" stop-opacity="0.82"/><stop offset="100%" stop-color="#A0C8E8" stop-opacity="0.62"/></linearGradient>
  </defs>
  <rect width="700" height="520" fill="url(#bro_sky)"/>

  <!-- Condo building facade -->
  <rect x="60" y="60" width="580" height="400" rx="5" fill="#2A4A68" stroke="#3A6A90" stroke-width="2"/>

  <!-- Floor lines -->
  <line x1="60" y1="155" x2="640" y2="155" stroke="#1A3A58" stroke-width="2"/>
  <line x1="60" y1="250" x2="640" y2="250" stroke="#1A3A58" stroke-width="2"/>
  <line x1="60" y1="345" x2="640" y2="345" stroke="#1A3A58" stroke-width="2"/>

  <!-- Windows: 5 cols x 4 rows of sliding doors -->
  <!-- Row 1 -->
  <rect x="80" y="72" width="96" height="74" rx="3" fill="url(#bro_glass)"/><rect x="83" y="75" width="14" height="56" rx="3" fill="white" opacity="0.22"/>
  <rect x="196" y="72" width="96" height="74" rx="3" fill="url(#bro_glass)"/><rect x="199" y="75" width="14" height="56" rx="3" fill="white" opacity="0.22"/>
  <rect x="312" y="72" width="96" height="74" rx="3" fill="url(#bro_glass)"/><rect x="315" y="75" width="14" height="56" rx="3" fill="white" opacity="0.22"/>
  <rect x="428" y="72" width="96" height="74" rx="3" fill="url(#bro_glass)" opacity="0.7"/>
  <rect x="544" y="72" width="78" height="74" rx="3" fill="url(#bro_glass)"/><rect x="547" y="75" width="14" height="56" rx="3" fill="white" opacity="0.2"/>
  <!-- Row 2 -->
  <rect x="80" y="167" width="96" height="74" rx="3" fill="url(#bro_glass)"/><rect x="83" y="170" width="14" height="56" rx="3" fill="white" opacity="0.22"/>
  <rect x="196" y="167" width="96" height="74" rx="3" fill="url(#bro_glass)"/><rect x="199" y="170" width="14" height="56" rx="3" fill="white" opacity="0.22"/>
  <rect x="312" y="167" width="96" height="74" rx="3" fill="url(#bro_glass)"/><rect x="315" y="170" width="14" height="56" rx="3" fill="white" opacity="0.22"/>
  <rect x="428" y="167" width="96" height="74" rx="3" fill="url(#bro_glass)"/>
  <rect x="544" y="167" width="78" height="74" rx="3" fill="url(#bro_glass)"/>
  <!-- Row 3 -->
  <rect x="80" y="262" width="96" height="74" rx="3" fill="url(#bro_glass)"/><rect x="83" y="265" width="14" height="56" rx="3" fill="white" opacity="0.22"/>
  <rect x="196" y="262" width="96" height="74" rx="3" fill="url(#bro_glass)"/>
  <rect x="312" y="262" width="96" height="74" rx="3" fill="url(#bro_glass)"/><rect x="315" y="265" width="14" height="56" rx="3" fill="white" opacity="0.22"/>
  <rect x="428" y="262" width="96" height="74" rx="3" fill="url(#bro_glass)"/>
  <rect x="544" y="262" width="78" height="74" rx="3" fill="url(#bro_glass)"/>
  <!-- Row 4 -->
  <rect x="80" y="357" width="96" height="74" rx="3" fill="url(#bro_glass)"/>
  <rect x="196" y="357" width="96" height="74" rx="3" fill="url(#bro_glass)"/>
  <rect x="312" y="357" width="96" height="74" rx="3" fill="url(#bro_glass)"/>
  <rect x="428" y="357" width="96" height="74" rx="3" fill="url(#bro_glass)"/>
  <rect x="544" y="357" width="78" height="74" rx="3" fill="url(#bro_glass)"/>

  <!-- Green check marks on some units -->
  <circle cx="128" cy="109" r="12" fill="rgba(40,180,80,0.2)" stroke="#28B450" stroke-width="1.5"/>
  <path d="M121 109 L126 114 L136 104" stroke="#28B450" stroke-width="2" stroke-linecap="round" stroke-linejoin="round"/>
  <circle cx="360" cy="204" r="12" fill="rgba(40,180,80,0.2)" stroke="#28B450" stroke-width="1.5"/>
  <path d="M353 204 L358 209 L368 199" stroke="#28B450" stroke-width="2" stroke-linecap="round" stroke-linejoin="round"/>
  <circle cx="476" cy="299" r="12" fill="rgba(40,180,80,0.2)" stroke="#28B450" stroke-width="1.5"/>
  <path d="M469 299 L474 304 L484 294" stroke="#28B450" stroke-width="2" stroke-linecap="round" stroke-linejoin="round"/>

  <!-- Text overlay -->
  <rect x="0" y="468" width="700" height="52" fill="rgba(8,18,36,0.88)"/>
  <text x="350" y="491" text-anchor="middle" font-family="Arial,sans-serif" font-size="20" font-weight="800" fill="white">Broward County</text>
  <text x="350" y="511" text-anchor="middle" font-family="Arial,sans-serif" font-size="12" fill="#90C8E8">HOA Specialists · Volume Pricing · 10%+ Multi-Unit Discount</text>
</svg>